<?xml version="1.0" encoding="UTF-8"?>
<!DOCTYPE svg PUBLIC "-//W3C//DTD SVG 1.1//EN" "http://www.w3.org/Graphics/SVG/1.1/DTD/svg11.dtd">
<!-- Creator: CorelDRAW 2018 (64-Bit) -->
<svg xmlns="http://www.w3.org/2000/svg" xml:space="preserve" width="2480px" height="3508px" version="1.1" style="shape-rendering:geometricPrecision; text-rendering:geometricPrecision; image-rendering:optimizeQuality; fill-rule:evenodd; clip-rule:evenodd"
viewBox="0 0 2480 3507.43"
 xmlns:xlink="http://www.w3.org/1999/xlink">
 <defs>
  <style type="text/css">
   <![CDATA[
    .fil0 {fill:#643030}
    .fil2 {fill:#E56E58}
    .fil1 {fill:#F3755F}
    .fil4 {fill:#F3C262}
    .fil3 {fill:#F9B1A5}
   ]]>
  </style>
 </defs>
 <g id="Layer_x0020_1">
  <metadata id="CorelCorpID_0Corel-Layer"/>
  <g id="_859572062672">
   <path class="fil0" d="M1164.02 1396.3l3 -4 2.5 -5 1 -5 0.5 -5.5 -0.5 -5 -1 -5 -2 -3.99 -3 -3.5 -3.5 -3 -4 -2 -5 -1.5 -5 -0.5 -5.5 0.5 -5 1.5 -4.49 2 -4 3 -3 3.5 -2.5 3.99 -1.5 5 -0.5 5 0.5 5.5 1.5 5 2.5 4.5 3 4 4 3 4.49 2.5 5 2 5.5 0.5 0 0 6.5 19.49 6 18 5.5 16.99 5 16 5 15 4.49 13.49 4 13 4 11.5 3.5 10.99 3.5 10 3 9 2.5 8 2.5 7.5 2 7 2 5.99 2 5 1.5 5 1.5 4 1 3.5 1 3 1.5 5 1 3 0.49 2 0.51 1 0 0.5 0 0 2.49 1.5 3 1.99 3 1 4 0.5 1.5 -2.49 1.5 -3 1 -3.5 0.5 -3.5 -69.98 -213.95 0 0zm166.96 -43.99l-5 0.5 -5 1.5 -4 2 -3.5 3 -3 3.5 -2 3.99 -1 5 -0.5 5 0.5 5.5 1 5 2.5 5 3 4 -6.5 19.49 -5.99 18.5 -5.5 17 -5 15.49 -5 15 -4.5 13.99 -4 12.5 -4 12 -3.5 10.5 -3.5 9.99 -3 9 -2.5 8.5 -2.49 7.5 -2 6.5 -2 6 -2 5.49 -1.5 4.5 -1.5 4 -1 4 -1 3 -1.5 4.5 -1 3.5 -0.5 1.5 -0.5 1 0 0.5 0 0 -1 3.5 0.5 3.5 2 3 3 2.49 4 -0.5 3 -1 3 -1.99 2.49 -1.5 6 -19.5 6 -18.49 6 -17 5 -15.5 5 -14.99 4.5 -14 4 -12.5 4 -12 3.49 -10.49 3 -10 3 -9 3 -8.5 2.5 -7.49 2 -6.5 2 -6 2 -5.5 1.5 -4.5 1 -4 1.5 -4 1 -3 1.5 -4.5 1 -3.49 0.5 -1.5 0.5 -1 0 -0.5 0 0 0 0 5.5 -0.5 4.5 -2 3.99 -2.5 3.5 -3 3 -4 2 -4.5 1.5 -5 0.5 -5.5 -0.5 -5 -1.5 -5 -2 -3.99 -3 -3.5 -3.5 -3 -3.99 -2 -4.5 -1.5 -5.5 -0.5 0 0z"/>
   <path class="fil1" d="M466.18 1511.77l-0.5 1 -1 3 -1.5 4.5 -1.5 6 -2 7.5 -2.5 8.99 -2 10.5 -2.49 11.5 -2.51 12.5 -1.49 12.99 -2 14.5 -1 14.5 -1 15.49 0 16 0.5 15.99 1.5 16.5 2 16.5 3.5 16.49 4.49 16.5 5.5 16 7 15.49 8.5 15 9.5 14.99 11.49 13.5 13 13 15 12 8.5 5.99 8.49 5 9 5 10 5 10 4.5 10.99 4 11 3.5 12 3.5 12.5 3 12.99 2.5 13.5 1.99 14.5 2.01 0.5 0 2.5 0.49 3.49 0 4.5 0.5 6.5 0 7.5 0 8.5 -0.5 10 -1.5 11.49 -1.99 12.5 -2.5 14 -4 14.99 -5 16 -6.5 17 -7.5 18.49 -9.5 19.5 -10.99 -0.5 0.5 -1 1.5 -2.5 2.5 -2.5 2.99 -3 4 -4 4.5 -4 5.5 -4.5 6 -4.5 7 -4.5 7.5 -4.99 7.99 -4.5 8.5 -4.5 9 -4.5 9.5 -4 10 -3 10.49 -3 11 -2.5 11 -1.5 11.5 -1 11.99 0 12 1 12 2 12.49 3 12.5 4.5 12.5 6 12.49 7 12.5 8.49 12.5 10.5 12.5 12 12.49 13.5 12.5 15.99 12 8 6 8.5 4.99 8 5 8.49 4 8 3.5 8.5 3 8 2.5 8.5 2 16.49 2.5 16.5 0.5 16.49 -1.5 16 -2.5 16 -4 15.99 -5.5 15.5 -6.5 15 -7.49 14.99 -8.5 14.5 -9.5 14 -10 13.49 -10.49 13 -11 12.5 -11 11.99 -11.5 11.5 -10.99 10.5 -11 10 -11 8.99 -10.5 8.5 -9.49 7.5 -9.5 6.5 -8.5 5.5 -7.5 5 -6 3.5 -5.5 3 -4 1.5 -2.49 0.49 -0.5 0.51 -29 0.5 -26.49 0.49 -25.5 0.5 -23.49 0 -21.49 0.5 -20.5 0.5 -19 0 -16.99 0.5 -16 0 -14.49 0 -13.5 0.5 -12 0 -11 0 -9.99 0.5 -9 0 -8 0 -7 0 -6 0.5 -5 0 -4.49 0 -4 0 -3 0 -3 0 -2 0 -2.5 0 -1.5 0 -1 0 0 -19.49 -10.5 -19 -10.49 -18.49 -10 -17.5 -9.5 -17.49 -9.5 -16.5 -9 -16 -8.49 -15.49 -8.5 -15 -8 -14.5 -8 -13.99 -7.5 -13.5 -7.5 -12.5 -6.99 -12.49 -6.5 -23.5 -12.5 -21.49 -12 -19.5 -10.49 -17.99 -10 -16.5 -8.5 -14.5 -8.5 -13.49 -7 -12 -6.49 -10.5 -5.5 -9.5 -5.5 -8 -4.5 -6.99 -3.5 -6.5 -3.5 -5 -2.5 -4 -2.5 -3.5 -2 -3 -1.5 -2 -1 -2 -1 -2 -1 -0.5 -0.5 0 0 -1 -0.5 -1.5 -0.5 -2.99 -1.5 -4 -1.49 -5 -2 -6 -2 -7 -2 -7.5 -2.5 -8.5 -2.5 -9.49 -2 -10 -2 -10.5 -2 -11 -1.5 -11.49 -1.5 -12.5 -0.5 -12.5 -0.5 -12.99 0.5 -13 1 -13.5 1.5 -13.5 2.5 -13.99 3.5 -14 4 -13.5 5.5 -13.99 6.49 -14 7.5 -13.5 9 -13.49 10 -13 11.5 -13 12.99 -12.49 14.5 -12 15.99 -11.5 18 0 0zm1548.14 0l-12 -18 -12.5 -15.99 -12.49 -14.5 -13 -12.99 -13.5 -11.5 -13.49 -10 -13.5 -9 -14 -7.5 -13.99 -6.49 -13.5 -5.5 -14 -4 -13.99 -3.5 -13.5 -2.5 -13.5 -1.5 -13 -1 -12.99 -0.5 -12.5 0.5 -12 0.5 -11.49 1.5 -11 1.5 -10.5 2 -10 2 -8.99 2 -8.5 2.5 -8 2.5 -6.5 2 -6 2 -5 2 -4 1.49 -2.99 1.5 -1.5 0.5 -0.5 0.5 -20 10.5 -18.99 10.5 -18 10 -18 9.5 -16.99 9.49 -17 9 -15.99 8.5 -15.5 8.5 -15 7.99 -14.49 8 -13.5 7.5 -13.5 7.5 -13 7 -12.49 6.5 -23.5 12.99 -20.99 11.5 -20 10.5 -17.99 9.99 -16.5 9 -14.49 8 -13.5 7 -12 6.5 -10.5 6 -8.99 5 -8.5 4.49 -7 3.5 -6 3.5 -5 3 -4.5 2 -3.5 2 -3 1.5 -2 1 -1.5 1 -1.99 1 -1 0.5 0 0 0.5 28.99 0.5 27 0.5 24.99 0 23.5 0.5 21.99 0.5 20 0 18.99 0.49 17 0 15.99 0.51 15 0 13 0 12.49 0.49 11 0 9.5 0 9 0.5 8 0 6.99 0 6 0 5.5 0 4.5 0 3.5 0.51 3.5 0 2.5 0 2 0 3 0 1.5 0 0.5 0 0 0.49 1 1.5 1.99 3 4 3.5 5.5 5 6 5.5 7.5 7 8.5 7.5 9.5 7.99 9.49 9.5 10.5 9.5 11 11 11 11 10.99 11.99 11.5 12.5 11 13 11 13.49 10.49 14 10 14.5 9.5 14.99 8.5 15 7.49 15.5 6.5 15.99 5.5 16 4 16.49 2.5 16 1.5 16.5 -0.5 16.49 -2.5 8.5 -2 8.5 -2.5 8 -3 8.49 -3.5 8 -4 8.5 -5 8 -4.99 8.5 -6 15.49 -12 13.5 -12.5 12 -12.49 10.5 -12.5 8.49 -12.5 7.5 -12.5 5.5 -12.49 4.5 -12.5 3 -12.5 2.5 -12.49 1 -12 0 -12 -1 -11.99 -2 -11.5 -2 -11 -3 -11 -3.5 -10.49 -4 -10 -4.5 -9.5 -4.5 -9 -4.5 -8.5 -4.49 -7.99 -5 -7.5 -4.5 -7 -4.5 -6 -4 -5.5 -3.5 -4.5 -3.5 -4 -2.5 -2.99 -2 -2.5 -1.5 -1.5 -0.5 -0.5 19.5 10.99 18.49 9.5 17 7.5 16 6.5 14.99 5 13.5 4 12 2.5 11.49 1.99 9.5 1.5 8.5 0.5 7.5 0 6 0 4.5 -0.5 3.5 0 1.99 -0.49 0.5 0 14.5 -2.01 14 -1.99 12.99 -2.5 12.5 -3 12 -3.5 11.5 -3.5 10.99 -4 10 -4.5 10 -5 9 -5 8.99 -5 8 -5.99 15 -12 13.5 -13 11.49 -13.5 10 -14.99 8.5 -15 7 -15.49 5.5 -16 4.49 -16.5 3.5 -16.49 2.5 -16.5 1.5 -16.5 0.5 -15.99 0 -16 -1 -15.49 -1 -14.5 -2 -14.5 -1.5 -12.99 -2.5 -12.5 -1.99 -11.5 -2.5 -10.5 -2.5 -8.99 -2 -7.5 -1.5 -6.5 -1.5 -4.5 -1 -2.5 -0.5 -1 0.5 0z"/>
   <path class="fil2" d="M810.1 1952.17l0 -11.5 1 -12 3 -22.49 5 -22.5 6.5 -20.99 8.49 -20.5 9.5 -19.49 11.5 -18.5 13 -16.99 -15.5 10.49 -17 9 -17.49 8 -18.5 6.5 -18.99 5 -19.5 4 -19.99 2.5 -20.5 0.49 -13.5 0 -12.99 -0.99 -13 -2 -13 -2 -12.49 -3 -12 -3.5 -12 -4 -11.49 -5 -11.5 -5 -11 -6 -11 -6 -10.49 -6.99 -19.5 -15 -18.5 -16.5 -16.49 -18.49 -14.5 -20 -7 -10.49 -5.99 -11 -5.5 -11 -5 -11.5 -4.5 -12 -4 -11.99 -3.5 -12.5 -3 -12.5 -2.5 -12.99 -1.5 -13 -1 -13 0 -13.49 0.5 -18 1.5 -18 3 -18.49 4.5 -18 -2 3 -1.5 3 -2 2.5 -2 3.5 0 1 -1 3 -1.5 4.5 -1.5 6 -2.5 7.5 -2 8.99 -2.5 10.5 -1.99 11.5 -2.51 12.5 -1.99 12.99 -1.5 14.5 -1.5 14.5 -0.5 15.49 0 16 0.5 15.99 1.5 16.5 2 16.5 3.5 16.49 4.49 16.5 5.5 15.99 7 15.5 8 15 10 14.99 11.49 13.5 13 13 15 12 8 5.99 8.99 5 9 5 9.5 5 10.5 4.5 10.49 4 11.5 3.5 12 3.5 12.5 3 12.99 2.5 13.5 1.99 14 2 1 0 2 0.5 3.5 0 4.99 0.5 6 0 7.5 0 9 -0.5 10 -1.49 10.99 -2.01 12.5 -2.49 14 -4 14.99 -5 16 -6.5 17 -7.5 18.49 -9.5 19.5 -10.99 -0.5 0.5 -1.5 1.5 -2 2.5 -2.5 2.99 -3 4 -4 4.5 -4 5.5 -4.5 6 -4.5 7 -4.5 7.5 -4.99 7.99 -4.5 8.5 -4.5 9 -4.5 9.5 -4 10 -3 10.49 -3 11 -2.5 11 -1.5 11.49 -1 12 0 12 1 12 2 12.49 3 12.5 4.5 12.5 6 12.5 7 12.49 8.49 12.5 10.5 12.5 12 12.49 13.5 12.5 15.99 12 13 9.99 14 8.5 13.99 6.5 14.5 4.5 -10 -9.5 -10 -10 -8.99 -9.99 -9 -11 -8 -11.5 -7.5 -11.49 -7 -12 -6.49 -12.5 -5.5 -13 -5 -12.99 -4.5 -13.5 -3.5 -14 -3 -13.99 -2 -14.5 -1 -14.5 -0.5 -14.99 0 0zm1185.22 -439.4l-0.5 -3.5 -1 -2.5 -1.5 -3 -2 -3 3.5 18 3.5 18.49 2 18 1 18 -0.5 13.49 -1 13 -1.5 13 -2.5 12.99 -3 12.5 -3.5 12.5 -4 11.99 -4.49 12 -5.5 11.5 -5.5 11 -6 11 -7 10.49 -14.99 20 -16.5 18.49 -18.5 16.5 -19.99 15 -10.5 6.99 -11 6 -10.99 6 -11.5 5 -12 5 -12 4 -12.49 3.5 -12.5 3 -12.5 2 -12.99 2 -13 0.99 -13.5 0 -19.99 -0.49 -19.5 -2.5 -19.49 -4 -18.5 -5 -18.5 -6.5 -17.99 -8 -17 -9 -16.99 -10.49 13.99 16.99 12 18.5 10.5 19.49 8.5 20.5 6.5 20.99 4.99 22.5 3 22.49 1 12 0 11.5 -0.5 14.99 -1 14.5 -2 14.5 -3 13.99 -3.49 14 -4.5 13.5 -5 12.99 -5.5 13 -6.5 12.5 -7 12 -7.5 11.49 -7.99 11.5 -8.5 11 -9.5 9.99 -9.5 10 -10.5 9.5 13 -4.5 14 -6.5 14.49 -8.5 14.5 -9.99 15.5 -12 13.49 -12.5 12 -12.49 10.5 -12.5 8.5 -12.5 7.5 -12.49 5.49 -12.5 4.5 -12.5 3 -12.5 2 -12.49 1 -12 0 -12 -0.5 -12 -2 -11.49 -2 -11 -3 -11 -3.5 -10.49 -3.99 -10 -4 -9.5 -4.5 -9 -5 -8.5 -4.5 -7.99 -5 -7.5 -4.5 -7 -4.5 -6 -4 -5.5 -3.5 -4.5 -3.49 -4 -2.5 -2.99 -2 -2.5 -1.5 -1.5 -0.5 -0.5 19.49 10.99 18.5 9.5 16.99 7.5 16 6.5 14.5 5 13.49 4 12.5 2.49 11 2.01 10 1.49 8.49 0.5 7.5 0 6 0 4.5 -0.5 3.5 0 2 -0.5 0.5 0 14.49 -2 13.5 -1.99 13 -2.5 13 -3 11.49 -3.5 11.5 -3.5 11 -4 9.99 -4.5 10 -5 9 -5 9 -5 8 -5.99 14.99 -12 13.5 -13 11.5 -13.5 9.5 -14.99 8.49 -15 7 -15.5 5.5 -15.99 4.5 -16.5 3 -16.49 2.5 -16.5 1 -16.5 0.5 -15.99 0 -16 -1 -15.49 -1 -14.5 -2 -14.5 -2 -12.99 -2.5 -12.5 -2 -11.5 -2.5 -10.5 -2.5 -8.99 -2 -7.5 -2 -6.5 -1.5 -4.5 -0.5 -2.5 -0.5 -1 0 0z"/>
   <path class="fil3" d="M656.64 1479.28l-12.5 0.5 -11.5 1.5 -10.99 3 -11 4 -10 4.5 -10 5.99 -9 6.5 -7.99 7.5 -7.5 8 -6.5 9 -6 9.99 -4.5 10 -4 10.5 -3 11.5 -1.5 11.49 -0.5 12.5 0.5 11.5 1.5 11.5 3 10.99 4 10.5 4.5 10.5 6 9.5 6.5 8.99 7.5 8 7.99 8 9 6.5 10 6 10 5 11 4 10.99 2.99 11.5 1.5 12.5 1 11.49 -1 11.5 -1.5 11 -2.99 10.5 -4 10.49 -5 9.5 -6 9 -6.5 8.5 -8 7.5 -8 6.49 -8.99 6 -9.5 5 -10.5 4 -10.5 3 -10.99 2 -11.5 0.5 -11.5 -0.5 -12.5 -2 -11.49 -3 -11.5 -4 -10.5 -5 -10 -6 -9.99 -6.49 -9 -7.5 -8 -8.5 -7.5 -9 -6.5 -9.5 -5.99 -10.49 -4.5 -10.5 -4 -11 -3 -11.5 -1.5 -11.49 -0.5 0 0zm1150.73 0l-12.5 0.5 -11.5 1.5 -11.5 3 -10.49 4 -10.5 4.5 -9.5 5.99 -9 6.5 -7.99 7.5 -7.5 8 -6.5 9 -6 9.99 -5 10 -3.5 10.5 -3 11.5 -1.5 11.49 -1 12.5 1 11.5 1.5 11.5 3 10.99 3.5 10.5 5 10.5 6 9.5 6.5 8.99 7.5 8 7.99 8 9 6.5 9.5 6 10.5 5 10.49 4 11.5 2.99 11.5 1.5 12.5 1 11.49 -1 11.5 -1.5 11 -2.99 10.5 -4 10.49 -5 9.5 -6 9 -6.5 8 -8 8 -8 6.49 -8.99 6 -9.5 5 -10.5 4 -10.5 3 -10.99 1.5 -11.5 1 -11.5 -1 -12.5 -1.5 -11.49 -3 -11.5 -4 -10.5 -5 -10 -6 -9.99 -6.49 -9 -8 -8 -8 -7.5 -9 -6.5 -9.5 -5.99 -10.49 -4.5 -10.5 -4 -11 -3 -11.5 -1.5 -11.49 -0.5 0 0z"/>
   <polygon class="fil4" points="1236.5,1587.75 1228.5,1588.25 1221,1590.75 1214.01,1594.25 1207.51,1599.25 1202.51,1605.25 1198.51,1612.25 1196.01,1620.25 1195.51,1628.74 1195.51,1645.24 1195.51,1661.74 1195.51,1677.23 1195.51,1692.23 1195.51,1721.22 1195.51,1748.22 1195.51,1773.21 1195.51,1796.2 1195.51,1817.7 1195.51,1837.69 1195.51,1856.19 1195.51,1872.69 1195.51,1888.18 1195.51,1902.18 1195.51,1914.68 1195.51,1925.67 1195.51,1936.17 1195.51,1945.17 1195.51,1953.17 1195.51,1960.17 1195.51,1966.16 1195.51,1971.16 1195.51,1975.66 1195.51,1979.16 1195.51,1982.16 1195.51,1984.66 1195.51,1986.16 1195.51,1987.66 1195.51,1989.66 1195.51,1990.16 1195.51,1990.16 1196.01,1999.16 1198.51,2006.65 1202.51,2013.65 1207.51,2020.15 1214.01,2024.65 1221,2028.15 1228.5,2030.65 1236.5,2031.65 1245.5,2030.65 1253,2028.15 1259.99,2024.65 1265.99,2020.15 1270.99,2013.65 1274.49,2006.65 1276.99,1999.16 1277.99,1990.16 1277.99,1973.66 1277.99,1957.17 1277.99,1941.67 1277.99,1926.67 1277.99,1897.68 1277.99,1870.69 1277.99,1845.69 1277.99,1822.7 1277.99,1801.2 1277.99,1781.21 1277.99,1763.21 1277.99,1746.22 1277.99,1730.72 1277.99,1717.22 1277.99,1704.23 1277.99,1693.23 1277.99,1682.73 1277.99,1673.73 1277.99,1665.73 1277.99,1659.24 1277.99,1652.74 1277.99,1647.74 1277.99,1643.24 1277.99,1639.74 1277.99,1636.74 1277.99,1634.24 1277.99,1632.24 1277.99,1631.24 1277.99,1629.24 1277.99,1628.74 1277.99,1628.74 1276.99,1620.25 1274.49,1612.25 1270.99,1605.25 1265.99,1599.25 1259.99,1594.25 1253,1590.75 1245.5,1588.25 "/>
  </g>
 </g>
</svg>
